<!-- From: https://thenounproject.com/icon/plant-4716719/-->

<svg width="20px" height="20px" version="1.1" viewBox="0 0 512 512" xmlns="http://www.w3.org/2000/svg">
 <path d="m362.14 109.98c-1.0859 0-2.1641 0.015625-3.2422 0-25.902 0.82031-50.863 11.801-69.066 31.203-23.809 25.395-32.508 61.414-23.02 94.812-12.336 20.684-21.359 43.441-25.047 69.348-3.5-9.0742-7.7773-17.68-12.66-25.898 8.0859-28.895 0.51563-60.008-20.07-81.965v-0.003907c-15.801-16.84-37.469-26.371-59.949-27.082v0.003907c-7.4961-0.22656-15.078 0.51562-22.566 2.2891l1.3125-0.19141h0.003906c-2.4805 0-4.6719 1.6211-5.3984 3.9922-8.9961 29.449-1.543 61.484 19.512 83.938 20.035 21.348 49.492 30.949 78.082 25.723 11.078 18.934 18.578 39.805 20.414 63.996v46.32h0.003906c0 1.4961 0.59375 2.9297 1.6523 3.9883s2.4922 1.6523 3.9883 1.6523c3.1172 0 5.6406-2.5273 5.6406-5.6406v-78.426c2.1641-28.535 11.07-53.121 24.195-75.395 33.141 6.2852 67.363-4.7617 90.59-29.516 24.27-25.871 32.848-62.777 22.48-96.707-0.58594-1.9141-2.1406-3.375-4.0898-3.8398-7.5469-1.7891-15.184-2.6758-22.758-2.6875zm-0.41797 11.281c5.7656-0.007813 11.57 0.58984 17.34 1.7344 7.7344 29.184-0.019532 60.379-20.777 82.508-19.559 20.84-47.859 30.66-75.82 26.82 15.473-23.199 35.355-44.035 56.516-64.535 1.0859-1.0312 1.7109-2.4492 1.75-3.9453 0.035157-1.4961-0.52734-2.9453-1.5586-4.0312-1.4023-1.4453-3.4688-2.0312-5.4258-1.5391-0.96094 0.24219-1.8398 0.73437-2.5508 1.4258-20.285 19.652-39.883 40.086-55.68 62.953-4.1914-26.52 3.9453-53.766 22.617-73.68h0.003906c16.141-17.199 38.238-26.93 61.188-27.648h2.4688zm-215.02 60.426c0.68359 0 1.3711 0.011719 2.043 0 19.527 0.60938 38.332 8.8906 52.07 23.531 15.43 16.457 22.406 38.801 19.531 60.742-13.43-19.074-29.871-36.184-46.844-52.625v-0.003907c-0.71094-0.69141-1.5898-1.1836-2.5547-1.4258-1.9531-0.49219-4.0195 0.09375-5.4219 1.5391-1.0352 1.0859-1.5938 2.5352-1.5586 4.0312 0.035156 1.4922 0.66406 2.9141 1.7461 3.9453 17.863 17.309 34.637 34.859 47.789 54.312-23.383 2.8086-46.914-5.5664-63.266-22.992-17.551-18.711-24.18-45.039-17.809-69.734 4.7695-0.91406 9.5703-1.3906 14.332-1.3711z" fill="#007335"/>
</svg>